# xmcd
#
# Track frame offsets:
#  150
#  14551
#  32377
#  47993
#  63247
#  75425
#  91053
#  116230
#  128666
#
# Disc length: 2209 seconds
#
# Revision: 0
# Processed by: cddbd v1.5.2PL0 Copyright (c) Steve Scherf et al.
# Submitted via: AltoMP3_Maker 3.0
#
DISCID=68089f09
DTITLE=Al Green - Livin' For You
DYEAR=1900
DGENRE=
TTITLE0=Livin' for You
TTITLE1=Home Again
TTITLE2=Free At Last
TTITLE3=Let's Get Married
TTITLE4=So Good To Be Here
TTITLE5=Sweet Sixteen
TTITLE6=Unchained Melody
TTITLE7=My God Is Real
TTITLE8=Beware
EXTD=
EXTT0=
EXTT1=
EXTT2=
EXTT3=
EXTT4=
EXTT5=
EXTT6=
EXTT7=
EXTT8=
PLAYORDER=
